<?xml version="1.0" standalone="no"?>
<!DOCTYPE svg PUBLIC "-//W3C//DTD SVG 20010904//EN"
 "http://www.w3.org/TR/2001/REC-SVG-20010904/DTD/svg10.dtd">
<svg version="1.0" xmlns="http://www.w3.org/2000/svg"
 width="700.000000pt" height="700.000000pt" viewBox="0 0 700.000000 700.000000"
 preserveAspectRatio="xMidYMid meet">
<metadata>
Created by potrace 1.11, written by Peter Selinger 2001-2013
</metadata>
<g transform="translate(0.000000,700.000000) scale(0.100000,-0.100000)"
fill="#000000" stroke="none">
<path d="M2544 6980 c-39 -10 -95 -31 -125 -47 -79 -41 -187 -154 -228 -237
-18 -38 -34 -74 -36 -80 -1 -6 -5 -22 -8 -36 -12 -49 -16 -106 -17 -231 l0
-127 -797 0 c-439 0 -814 -3 -833 -7 -210 -37 -389 -182 -459 -370 -30 -79
-33 -100 -36 -199 -4 -134 26 -237 99 -346 72 -108 203 -204 321 -235 17 -5
37 -10 45 -13 8 -3 383 -7 834 -8 450 -2 820 -4 822 -6 2 -2 4 -104 4 -226 1
-122 6 -238 12 -259 11 -40 62 -119 319 -490 85 -123 225 -325 311 -450 86
-126 167 -238 180 -249 52 -48 86 -57 218 -58 l124 -1 1 -210 c1 -176 4 -215
18 -242 79 -150 280 -159 364 -16 26 46 27 48 29 252 1 113 2 208 3 211 0 3
56 6 124 6 177 2 197 14 318 194 35 52 66 97 69 100 3 3 20 27 38 54 19 27
133 193 254 370 122 176 244 355 273 396 82 120 83 124 85 385 0 126 2 231 4
232 2 2 374 5 827 7 743 2 829 4 874 19 148 51 246 125 326 246 70 107 94 190
93 326 0 122 -18 193 -74 290 -86 151 -251 264 -421 290 -24 4 -401 7 -836 7
l-793 1 -1 131 c-2 197 -9 237 -62 346 -44 89 -151 197 -237 238 -130 63 -90
60 -1065 61 -836 0 -894 -1 -961 -19z m1835 -408 c19 -9 44 -30 55 -45 21 -28
21 -36 23 -873 l3 -844 -960 0 -959 0 2 844 c2 837 2 845 23 873 11 15 36 36
55 45 32 17 94 18 879 18 785 0 847 -1 879 -18z m-2401 -762 l152 0 0 -180 0
-180 -787 0 c-781 0 -787 0 -831 21 -53 26 -93 83 -99 143 -7 57 25 126 75
164 32 24 45 27 141 32 58 3 351 4 651 3 300 -1 614 -3 698 -3z m4509 -17 c49
-24 94 -88 100 -146 7 -62 -25 -129 -80 -165 l-41 -27 -798 -3 -798 -2 0 179
0 180 93 3 c50 2 406 2 789 1 643 -3 701 -4 735 -20z m-2226 -1410 c-5 -10
-40 -62 -78 -115 -37 -54 -97 -140 -133 -193 -36 -52 -101 -146 -145 -209 -44
-63 -85 -123 -91 -133 -10 -16 -34 -17 -308 -18 -164 0 -301 2 -305 5 -7 5
-114 156 -251 356 -34 49 -87 126 -118 172 -31 45 -67 98 -80 117 l-22 35 770
0 c731 0 770 -1 761 -17z"/>
<path d="M2566 2465 c-74 -19 -132 -69 -169 -145 -20 -42 -22 -61 -24 -305 -1
-143 -2 -267 -2 -276 -1 -15 -84 -16 -919 -16 -505 0 -944 -3 -976 -7 -173
-22 -328 -130 -410 -286 -63 -120 -67 -152 -64 -598 4 -446 3 -441 85 -576 70
-115 221 -220 353 -245 37 -7 1052 -10 3066 -11 3308 0 3057 -5 3189 60 72 35
139 89 187 150 37 47 91 154 104 205 5 17 9 210 11 430 3 446 1 463 -64 587
-80 152 -240 264 -409 284 -33 3 -472 7 -976 7 -505 0 -918 3 -918 6 -1 3 -2
128 -3 276 -2 257 -3 272 -24 311 -35 66 -70 101 -131 131 l-57 28 -904 0
c-604 0 -918 -3 -945 -10z m1649 -560 l0 -160 -715 0 -715 0 -1 155 c0 85 0
157 2 160 1 3 323 5 716 5 l713 0 0 -160z"/>
</g>
</svg>
