<svg width="100" height="100" viewBox="0 0 100 100" fill="none" xmlns="http://www.w3.org/2000/svg">
<g clip-path="url(#clip0)">
<path d="M8.43658 27.9892H30.4482V33.9676C30.4482 34.7305 30.677 35.466 31.1111 36.0947L41.7152 51.4694C42.2775 52.2881 43.206 52.7763 44.1986 52.7763H47.0711V58.0292C47.0711 59.6474 48.3826 60.9589 50.0008 60.9589C51.619 60.9589 52.9305 59.6474 52.9305 58.0292V52.7763H55.8167C56.81 52.7763 57.7385 52.2881 58.2977 51.4725L68.8919 36.0931C69.3245 35.4652 69.5534 34.7305 69.5534 33.9676V27.9892H91.5634C96.2151 27.9892 100 24.2043 100 19.5526C100 14.9002 96.2151 11.1153 91.5634 11.1153H69.5534V7.84683C69.5534 3.5202 66.0332 0 61.7065 0H38.295C33.9684 0 30.4482 3.5202 30.4482 7.84683V11.1153H8.43658C3.78494 11.1153 0 14.9002 0 19.5526C0 24.2043 3.78494 27.9892 8.43658 27.9892ZM54.3205 46.917H45.6932L38.958 37.1513H61.0481L54.3205 46.917ZM91.5634 16.9746C92.984 16.9746 94.1406 18.1313 94.1406 19.5526C94.1406 20.9732 92.984 22.1298 91.5634 22.1298H69.5534V16.9746H91.5634ZM36.3075 7.84683C36.3075 6.75125 37.1994 5.85938 38.295 5.85938H61.7065C62.8021 5.85938 63.694 6.75049 63.694 7.84683V31.292H36.3075V7.84683ZM8.43658 16.9746H30.4482V22.1298H8.43658C7.01599 22.1298 5.85938 20.974 5.85938 19.5526C5.85938 18.1313 7.01599 16.9746 8.43658 16.9746Z" fill="#0078D7"/>
<path d="M92.1867 75.4021H66.1003V68.4608C66.1003 66.3559 64.3875 64.6431 62.2826 64.6431H37.6053C35.5629 64.6431 33.9012 66.3048 33.9012 68.3472V75.4021H7.81326C3.50494 75.4021 0 78.907 0 83.2153V92.1875C0 96.4951 3.50494 100 7.81326 100H92.1867C96.4951 100 100 96.4951 100 92.1867V83.2153C100 78.907 96.4951 75.4021 92.1867 75.4021ZM39.7606 70.5025H60.2409V75.0771H39.7606V70.5025ZM7.81326 81.2614H92.1867C93.264 81.2614 94.1406 82.1381 94.1406 83.2153V84.7092H5.85938V83.2153C5.85938 82.1381 6.73599 81.2614 7.81326 81.2614ZM92.1867 94.1406H7.81326C6.73599 94.1406 5.85938 93.264 5.85938 92.1867V90.5685H94.1406V92.1867C94.1406 93.264 93.264 94.1406 92.1867 94.1406Z" fill="#0078D7"/>
<rect x="4" y="78" width="92" height="18" fill="#0078D7"/>
</g>
<defs>
<clipPath id="clip0">
<rect width="100" height="100" fill="white"/>
</clipPath>
</defs>
</svg>
