<?xml version="1.0"?>
<svg xmlns="http://www.w3.org/2000/svg" viewBox="0 0 64 64" width="512" height="512"><g id="_3D_printer" data-name="3D printer"><path d="M58,2H4A3,3,0,0,0,1,5V59a3,3,0,0,0,3,3H58a3,3,0,0,0,3-3V5A3,3,0,0,0,58,2Zm1,57a1,1,0,0,1-1,1H4a1,1,0,0,1-1-1V5A1,1,0,0,1,4,4H58a1,1,0,0,1,1,1Z"/><path d="M56,6H6A1,1,0,0,0,5,7V49a1,1,0,0,0,1,1H56a1,1,0,0,0,1-1V7A1,1,0,0,0,56,6ZM55,8v8H48V13a1,1,0,0,0-1-1H37a1,1,0,0,0-1,1v3H7V8Zm0,12H48V18h7ZM7,18H36v2H7ZM44,30H40V28h4Zm-1.477,2L42,33.308,41.477,32ZM38,26V14h8V26ZM13,48V46H49v2Zm38,0V45a1,1,0,0,0-1-1H12a1,1,0,0,0-1,1v3H7V22H36v5a1,1,0,0,0,1,1h1v3a1,1,0,0,0,1,1h.323l1.748,4.372a1,1,0,0,0,1.858,0L44.677,32H45a1,1,0,0,0,1-1V28h1a1,1,0,0,0,1-1V22h7V48Z"/><path d="M16,40H14a1,1,0,0,0,0,2h2a1,1,0,0,0,0-2Z"/><path d="M22,40H20a1,1,0,0,0,0,2h2a1,1,0,0,0,0-2Z"/><path d="M34,40H26a1,1,0,0,0,0,2h8a1,1,0,0,0,0-2Z"/><path d="M46,40H38a1,1,0,0,0,0,2h8a1,1,0,0,0,0-2Z"/><path d="M24,52a3,3,0,1,0,3,3A3,3,0,0,0,24,52Zm0,4a1,1,0,1,1,1-1A1,1,0,0,1,24,56Z"/><path d="M17,52a3,3,0,1,0,3,3A3,3,0,0,0,17,52Zm0,4a1,1,0,1,1,1-1A1,1,0,0,1,17,56Z"/><path d="M10,52a3,3,0,1,0,3,3A3,3,0,0,0,10,52Zm0,4a1,1,0,1,1,1-1A1,1,0,0,1,10,56Z"/></g></svg>
